<mxfile host="65bd71144e">
    <diagram id="nvSibP7_NphiJl7bgqcP" name="Page-1">
        <mxGraphModel dx="1856" dy="844" grid="1" gridSize="10" guides="1" tooltips="1" connect="1" arrows="1" fold="1" page="1" pageScale="1" pageWidth="850" pageHeight="1100" math="0" shadow="0">
            <root>
                <mxCell id="0"/>
                <mxCell id="1" parent="0"/>
                <mxCell id="2" value="" style="shape=image;verticalLabelPosition=bottom;labelBackgroundColor=default;verticalAlign=top;aspect=fixed;imageAspect=0;image=data:image/png,iVBORw0KGgoAAAANSUhEUgAAAU8AAAEBCAMAAADPQdfcAAAAAXNSR0IArs4c6QAAAARnQU1BAACxjwv8YQUAAAB4UExURQAAAAAAAAAA/0BwvzxptEBwvz5suUVwxURtwURww0NzwkJywkRyxERyw0RyxENyxERyxURxxERzxERzxENyxERyxERyxS9VlzBXmjFYnDNaoDRcojVepTZgpzhiqzljrTtlsDxnsz5ptj9quUBtu0FvvkNwwURyxHDCjSoAAAAXdFJOUwABARARICEwMUBQYHCAj5+vv8/e3+/+pI22EQAAAAlwSFlzAAAXEQAAFxEByibzPwAAD+5JREFUeF7tnemCqjAShXuGcRwQER2ZRkVFEHz/N5xUJUIii2zGhM737/bVCCdLVZYDPwaDwWAwGAwGg8FgMBgMBoPBYPgK1mJpOyvX9bzNxvPWa3e1cmz2f4ZeLBzX2wWPWvb+Zm0v2QcN71g2Kyngr01bfYdlr3dMLo48z7I8Z/8Q2Hor9k1DBcve8O0yT+NLdDoewvCXEYaHQ3S5pin7BMV3LVaAocRabQsxQcljoWIt0eWWsU8TfHfBijEglleImV6PTLN3hNG1bKlb0/EL7KeaeXo5MLG6Et3oVwmeaaSAzSJQnkTtfbyJKH7GKu/PZ1HWiqmZXoaJSYliWspf7/b2nsqQnsaoiVxYfNr93Ta69FGBPO0agdqJEizu4f/NcZTF9PzaNwQ1c2TByfuDGamDXT2/ju7oAoenouxX/gosqE/U03mONCf9U8Mo6+rZmWkwLRGNTC77sfmzxMaZj8qQWrmgoLs/EpdcbJzpdGGoSkhD/V9ootYG7jSP2J1/CtpEt+xH58sSw/pHGyeFxqW5hyXs6x8cOXmwiQZzXsSnff3+6b7+5IiBfr6DKOvrUhonEt7hB+ea29u0r7N7lQNOl+YZlVYg5336CVE717kKipFIYl9/cpqnoGu4rZt8OUlUmqGgNLDH35BzjoJauHB8ZfcnnbkJinLmn1lM6sS8BF1A2vnxCXsrGJRmkodasDr3XTmZoA67Iq2xtuRO7p9f/3hDBIL+h12TxuDYmX1dTjpTCv7FrkpbaChSQM7fX1i/0z0mUTllzzHrwcWRDbswTYE0/tuhqOBALkbvmOSpJCcN8sE/2LVpiKuWnL+/cGrMZxenHyjnF2dFVUJYsNd1A2RFrv2hlJxa9/glrHd+bQmkCchCtYzxOMuM2V2oA/Z4DadJmHgm31nvbAV6/F6/Hg+ZUqagnL+/cBJHuyQUQ7sa06JXQg0bKMYiqYlneIwu12tMuF1P7csFEJL0ci3gArLEWHS83l/cncmt2cgEDVSrnAlXPG/s6j9OeMFDIFWSptwXtuR1aqAQi+6SYlH4tMkQAmCPZ3oYcW0j1ayBSoxFhZo7z10Wng5n5UEPQWoPRkID1eaUGMQiSYsgJ6pmsK455Ongjj+hZhyHpF6XBorzIjlnvi4YhIJG+7tLW+m9Oo7COpMmkySYF0mJRSEenWtWE1jSRlo55gMjqB6zeBg8pcyL6HHut0a4FYan7HU4J3UR/Jt9RGVw8Dyxi/4kJ+jrQZesB7KNSnyE3WMNIhIOnjLW6I4oZ7dpOHU7vVSyHhEJ2kLCrviT4KrbtqtdC2v5ZWVbi4gka/BEt5bfw0OMgV4QVIeIJC3zhMi+6yEn3bd+CGMoqRLFO7y0wRN8RUFPnxYcj87Y95Ez+YPaEV7W4AmxuWMo4oC8OGUlANDhlY7w0gZPWE7qvzxk/Zd8jZ+3kZC2U7jDSxs8YTFjyMnYxf/IF7msCSK8uh1e2nbmgWSeQa9Y9MQhV8gNoTBsqLsKCoOnFHMRxPaB4x4MoWUPCknFKHv2Btc8ZcgJrWroIU6L9HiugcIcXtEBVN6aJwSjwQeQIAstr1LdjEla5onNc7hNQ2ygcLJBzY14zDxl9Hac1Yx4yorQQCEDXbP/UAppa554wnhMDIEGWk45SAaqYkCSuGEEueeo45ukgeasLFUDkrzBE1OcHfvZYUAOWlQ91I56Bhp5gydG5HEpOHT4YncLgptyh5XlDZ40Gg2aGpVsuQ6v4pKIxMETu/tYTyus2xVHHCYob2IkDp60f45NGKHDF6tMJMArpqfEwZPG45Hd/efnv2XGpF5/lzl4TpQvQgtgHR7iu1ITJHigkqzBkz5kYfx8BpZB71gebOHvVcqXFkROSUeVANg2muCJnrjXGZ+iG5FTqQVQPDYr8RQyyZbGJfMUDKEMpXaMYXFB1rFZYKrpNp5GR5RaDcEl5MZD6h+A/N5E2Y0LTTTwlYpFjtRYRIBwNN1wtyiPMysBzIskxiKCkrPtqZC2nVkyUXhXE9gqlBmLCGR2tGe/PjvkzosoJF2a1TP9OOBJAVJOIfOks9UTY5H0By/cFT5+MIovxCKApPOaPzypnm89KYC0z1nqCdNM2bEImGl/h/XDrzwpgMSjGeqJs3aZ08yCWcZ3kPNLz1SKH4+AXcVsgEUQubP2EtidUGsNYzSYeMrPlCiwHjKvl+98VU5cr5vV+hLK+ZU3HCDKHi8cCL5sR/KakoCixwsH8nU55xXgvy/nrAKSAnKq7xDsjgpy4gA6jw6PLyr7upzoEJzDDhJ9UdnX5ZxLh//Wi8qqzKLDwwLdF9N4Hujwmk+Rvvqislegw+u9Ro+bG99aUaoC5mKdI5INeZJCj+QHy6XGDZS+vPkrq/ENkIikbQNlL2+WeSTxLTDn1HRRBOdEyj1CHvzvWk7i2Yva2W0oA6wqT3HqWzaYdd5ln1HqQEKuS82nALSCj39SrK8jkINqOEkielKXjnJADqruc36aUFdPcMWOeebFd1BXTzz4rV1IUlhPzJl0myWprCf0eN1ivMp60rfA6ZXVK60nLoTqZfZQW098F7FW83jF9dRuCFVcTxxCddr7UF1PPA6qUQtVXk+cd+oz8VRfT70E1UBPrQTVQU+dBNVCT40E1UNPKqgOp8A10RNnno+d+suhuuhJBe3/Og/ZaKMnbskr95zECvro+XuE9WXV+7xGerI+r/bkUys96eqI0n1eLz3pS5FUVlQzPZ99vtMbOb+Bdno+Xw69G6yotVjai09FNf30/P1lLy/f9d2pWziut9vD+Tcg2Pvr1eQr1TrqSY86EDadW5llr3dPIUV23qT5gp56spduPx7bdQdJLXdbr+WTrTfZprSmepLsnin6TgzL4Rtmnt7iy/kURedrnNBhg7L3phlRtdWTKApHRJHAaxgHLWdTiHlPLsfXg5mH6IqvQ0c6tfV3aKwnmdJfiyZWI6nlFN08T87Nj5LiNB3f8bXWk3C60gwf2Kxt1sKspVPGnzyptMtXDixlIOw991nKEHTXk3C8lH2W6OF7W3RYUPL03O309als64Stvx7myJ2BnoRQkLQgT6I+R9n5tk4q5p9Mol7MQ0/gRdI8u73t5lUOZSl/XU+ApEFplt9v19MALZ8cSCnwyg+j53SQ5NboOSFGz2kxek6L0XNajJ7TYvScFqPntBg9p+WDeh6iy/U09mEY4TG6XCYo5Xw9j/bqh6fL21I+oif54fgOhhUgIZM49vd+hNE1LUpJh5ZyPMfpcwEoS67nYVXD31BG7qixlOn1DE/4okWRuK8Y4aW4/pJb3yfpHIWFH0py6TtDF5ePKOm1fp15Yj3DU1yVgdJD0vBcIyYl6f6spzoxKX0krROTktXd0ZR68mIGW89dWj/Oas1tEXaSNIwKMYOdv3aW1gJKKZd6ky6tNCxlgFJsKGXtl2/W7FYvnJhwQ/bih5SywReeIln82vEn0zMs16mD7Up8rr5bXEEWt7/ZIzwlhZjeyxsGXfKTjDcVw7Xv3VosxfaK6n0nKde+t2txe8heFzWTim19Gj2Pl7SQYevWvaSglJT0tnpNSY2ULXNT+7pGB5+ghbSVwj4CYrIv8jicpE0VE0a3RjEpS3xHJ5LFZY8ZqyeE8kLLJjEpnKR5EguJB0mtyvj5CPyWd19ykhI5+FJIanVNuFJqZaAIhZDMgeu1UEpaaNlQJZSFWw5CJHXAUsbo+bhnxdUD9RXJYZV1imRpcrulYimVwaIKVzEAlJKQzEoopb59c/CSErJ7kpBLKasD2L+7IX74APKMjHnD9eQI/Le/jSy5UbDKzrPfiYlYq/K4QYWA1GunUpxyFKwCpbDPteOsxeodrSfEz243wLDdTfVGSPx82zAFSCkvN0LY+x1r5AlRo1IzvW8ISim7/jA9N8F+529IDtHvlwtI4kEyj+1+R0sZVggrZbffbX0PE7RBkHxs42/35IZ8zyUJGvtzT1gpwTA9DQaDwWAwGAwGw3yxrOXSscecgAZIKc4EpSyWzspeTlCKYy8Gzp6GY9mutwvKWTGZU/e3kxEdoRRWBAFMad0WKDjgOPyWL2VXHpXvjrVcCaUE/pBSBrF0mxZ+tj3sZMtGH5W/7lwzzc62qUpxe9dvLyzba1n/ArYdvE+W4zdc/xO/Zc36yVtn28PvYItdNmrJCDa9O15XbE8wR8TgJjueovP1Wu4cENq9T5bNN29SyuUSsVKKTXSgXQzB2ZbfE1LK6di/FH51FEshN3QAg9xNOHDfZAkbA7c/lac1h0IEO5nfIClp34UMeY0n7fd0jsuqaRKDb9/3uKaU6MydD9g0DEKWW1QJqdXqofowuhQmu2aX3SC4bk60bDnOz5nSqq2Ua5l50nBWAAijck+62vGtVTdn24FTo1oxXDe/x6fmGzqVno5pJIUgXHbQ9NJ4CuUJ533aFjESg3DZGt7bqKIb+zARozCl0ayC/bmDs00opfCzo9Od/fWRt9TrE85ssxnlinc9IRFpOn9SgWtfhL3PF5K/bGY3w4lB2G6EUjqbsUTnkS/cUB6/rxJEtITt/c0wfxw/WHcWkyI69J50NvgxoppjUiBmSwetQayYJ1lXMSkvkg7a73jqmXXo5lVOXHwikPDZT0xKFL+U0k8GRnQTqje/92sdjEuROgzWM7tGQ67/SUhSjzSDg4hjSgFTGiklJinRqFJIFgQ50XFA4yggpRBRB+uZsGIMJYPPhxg9azF6TovRc1qMntNi9JwWo+e0GD2nxeg5LZ/TE06CX1vWzLqBpURjS4Hz5KO9enASnEzD2kv5iJ7hpfSkwcnyYS80P/Jn6rMkHvSWecGqB2flB1VNeOKseo80afbqTa9nrbOthw2LUmvG6m1tq1vJur+x7FSoNfzlDc6QifUUxeSWE3uZBUUxhVJ6SNrsbLs3+y9fEQ1/wqXUuqCm1PPF2QYnwWHnutyn6+aPK2VgnrQfWzCldWrrL842cimW43rlpmfaRVJOTHJDWMqLV69yR5Pp2eZsK70pTd3kiehsY19ncA6XN21dcLaJO1WcDevNZgBnDKt4eKzSsnMX72gSPQVn26uYlFXpB2nabgujUoYGGxVvbWuICcfzW2fbumhfWdywNfLe8Cc6/orGPlLPV09am7ONt2GJpjTqSStLaXP+8D4seD4aVwpY9cr40+YfsktJ0RRfVk0oJgSthj/xjkgqRepmjJ4P0R4XbJ2W3wa4boLkWZq82OM6ONt+nBdLGJYi2OP6O9vAIPdqj2utEgpvOQSG++OKYQgJ5DrbSMcXf59nuLONJ/A7Hj9bvDr+xurZ25O2IIGWfbegvyfNEqz1lCHONs4Uz8CEgP1/NxzeqzdMT58a21b9Lr/EIokHWNuwlMGeNDCl0VK84VY9OMUA1jawx62HP7QXUil0/A3S02AwGAwGg8FgMBgMBoPBYDAYDAaDwWAwGBTi5+f/pRwkNuzgkHwAAAAASUVORK5CYII=;" parent="1" vertex="1">
                    <mxGeometry x="650" y="88" width="198.56" height="152.33" as="geometry"/>
                </mxCell>
                <mxCell id="3" value="" style="shape=image;verticalLabelPosition=bottom;labelBackgroundColor=default;verticalAlign=top;aspect=fixed;imageAspect=0;image=data:image/png,iVBORw0KGgoAAAANSUhEUgAAARAAAAEQCAMAAABP1NsnAAAAAXNSR0IArs4c6QAAAARnQU1BAACxjwv8YQUAAAF9UExURQAAAAAAAP8AAMwAANUAALYAAMwAAL8AAMQAALYAALsAAL8AAL8AALkAALwAAL8AALoAAMQAAL8AAL8AAMEAAL8AAMEAAMIAAMQAAL8AAL8AAMEAAMAAAMIAAL8AAMAAAMEAAL8AAL4AAL8AAL0AAL8AAMAAAMEAAL4AAMIAAL8AAL8AAMIAAMEAAL8AAMEAAL8AAMIAAL8AAMEAAMAAAMEAAL8AAMAAAL8AAL8AAMAAAL8AAMAAAMAAAL8AAMAAAL8AAMAAAMEAAL8AAMAAAL8AAMEAAMAAAMEAAMAAAL8AAMEAAMAAAMAAAMAAAMAAAMAAAMEAAMAAAMAAAL8AAMAAAMAAAMAAAMAAAMAAAMAAAMAAAMAAAMAAAMAAAMAAAMAAAMAAAMAAAMEAAMAAAL8AAMEAAMAAAMAAAMAAAMEAAMAAAMAAAMAAAMAAAMAAAMEAAMAAAL8AAMAAAL8AAMAAAMAAAMAAAMAAAMAAAMAAAMAAAMAAAMEAAMAAAAfI7DEAAAB+dFJOUwABAQUGBwoMDQ4PEBQWFxgaGhwgISQlKissMDE5Ozw9PkBDREZMTU5PT1BUVFdYW1xcYGJlZmhpb3BydHV2eHl8fX+AhY+PkZOWmJiam52en6Cho6Snqq6vsra7vb/Cw8fJy8zP0NHT1NXV19rb3N/i5+jp7Ozu7/Dy8/n7/RX/MpcAAAAJcEhZcwAAFxEAABcRAcom8z8AAAuXSURBVHhe7d3pnxtHEcbxBRICKFxWHEBAQBwBBJggTsVgCAJhjhBBOBaMMEnEmRgRAgiM0d+OSvvbrRlVT0mz4cV0bX/f+Zme/ahqZ3p6Riv5pCiKoiiKoiiKJv3heDoZDfo9/n2VDWerjVovZ8Or3JXxKY2oWs9HV7Mn/TkdsNbzAYOukBnFp61nV+wo8dshrlRLhmuqdq2HDA9vQsWHrCfsENzh0+XC/AqcNr0lxR5l0We3sPrVddgRVtEvwC37sdksY581C8ps4TRyR1rMp2rGzgGNKLGlsFffAQW2tY46sV5iAjmz4AcE03zCrBfz6ex02bygH/EjYmm44q6mF/csg2nDqi3kITKmuLrVmM1nepN02+qjYkieEPYC0pukBq7iLUaSB0jyBn+U6ki8S2/i8WnTfcog0ZFTtoXRSxTZuLxIHCPraOdM4oxxHoglHiFFu/LaR+xztiTZEyzaOWNPAvccsNPIii1BDClLuQdI6r441iNnOykcmCRtB2OtzaZUdeHgGWAW8bFWImaSPPjUx5wzB86xzJiGHLyKmnvjWJcZc8t28O0FM4nEuuM1V9GDC88+Ay/Euu5SlCJ3MFCRx0BNitzBQEUeAzUpcgcDFXkM1KTIHQxU5DFQkyJ3MFCRx0BNitzBQEUeAzUpcgcDFXkM1KTIHQxU5DFQkyJ3MFCRx0BNitzBQEUeAzUpcgcDFXkM1KTIHQxU5DFQkyJ3MFCRx0BNitzBQEUeAzUpcgcDFXkM1KTIHQxU5DFQkyJ3MFCRx0BNitzBQEUeAzUpcgcDFXkM1KTIHQxU5DFQkyJ3MFCRx0BNitzBQEUeAzUpcgcDFXkM1KTIHQxU5DFQkyJ3MFCRx0BNitzBQEUeAzUpcgcDFXkM1KTIHQxU5DFQkyJ3MFCRx0BNitzBQEUeAzUpcgcDFXkM1KTIHQxU5DFQkyJ3MFCRx0BNitzBQEUeAzUpcgcDFXkM1KTIHQxU5DFQkyJ3MFCRx0BNitzBQEUeAzUpcgcDFXkM1KTIHQxU5DFQkyJ3MFCRx0BNitzBQEUeAzUpcgcDFXkM1KTIHQxU5DFQkyJ3MFCRx0BNitzBQEUeAzUpcgcDFXkM1KTIHQxU5DFQkyJ3MFCRx0BNitzBQEUeAzUpcgcDFXkM1KTIHQxU5DFQkyJ3MFCRx0BNitzBQEUeAzUpcgcDFXkM1KTIHQxU5DFQkyJ3MFCRx0BNitzBQEUeAzUpcgcDFXkM1KTIHQxU5DFQkyJ3MFCRx0BNitzBQEUeAzUpcgcDFXkM1KTIHQxU5DFQkyIXo+mF6hfxMFCRx0BNilxUvp+o+sVLRIo8BmpS5KI0RJCL0hBBLkpDBLkoDRHkojREkIvSEEEuSkMEuSgNEeSiNESQi9IQQS5KQwS5KA0R5KI0RJCL0hBBLkpDBLkoDRHkojREkIvSEEEuSkMEuSgNEeSiNESQi9IQQS5KQwS5KA0R5KI0RJCL0hBBLkpDBLkoDRHkojREkIvSEEEuSkMEuSgNEeSiNESQi9IQQS5KQwS5KA0R5KI0RJCL0hBBLkpDBLkoDRHkojREkIvSEEEuSkMEuSgNEeSiNESQi9IQQS5KQwS5KA0R5OIqNsT8B9yXacjB//c8HwPzf5hfpiGrAVuyZ/7H+i02iWMbslkP2ZS5MfXUsE0c3ZDNesK2rE2ppo6N4viGbDYBOjKnlD1sFW0aspn12JyrBYXsY7No1ZDNPO+ONBwfr6Mhmxnbs5ScT3cYIFo2JOd5JHW9BSNE24ass12P9O167Fz1t9zQkEnj3qtc16wrCjDqE2NDQ076TRPyZpHnxNpUz3LvkG9qyPaUa/oRe+PyMOHF7zNzYnNDTnpN502GE2vDBJK4Q3Masj1I0ufdOr9ppFJmxTJx9rsNOekv2VaX3Ukz4oXXnbK1xm/ISS+9uMvtzjd5pE/ZWHegIQ23hws2ZiK5RE3+/m88X5ls1vNPP8KGqhmba7KaV5Mzqj1fejfvPmDjhQd3JnaeSZ0165wWI6kClmy78Pgzf2LTnt/d2r+G9FIza0Z3efaZ8vZ6u/cLvXbzJbYk/Par72AYeok5KaNDJLUm21t/fOxX5A1OP8xAJJ5TN8zRXZR48XtT4Bf+QN7opc8xFIkmm5OwqxKXmBWbzrz1W/8id7x262GG7/QS9zXVbwrsssQitb6M+hnpAfVZM/FwJbnO657ElFp/5d8mPag+SdhLVybTauJsr73wr/+X9KD/PM0uO4nFTR7T6oHX/aV/kh7h719kpx27hM9iWk2c69UD5Il7hEe59wS7icQhksPjVXvG1O5hniU80rPstmNn6xxuaOyrHrNFPGVuXnwPnmJHYZ8p5HCdMcd1dQ1y7Q7h0e5cY1dhFvD19U0n2YtudTnR9KDVcZNdhZ1Wuz+J2JIrt64PNb6z0GzxEDtv2W53f7FqppA1G8STZK08yc7CPAbo/rNVM4VUn/XdJmvlNjsL0+7OTyI9XqiqTCGPvULWyiuPsfuWnUTY0FkDXqeqnOXpR/EHuT+h62/Q2HVqZZn6DFFL32D3LTurdv0yY36F1Tn1p2QtPcfuwsyqXX9/xlx1q3Pqi2Qt3WV3YWbV6jK4i7yGvPvfZC397S38gC3TkK7fzZjLQOVuI/Uw/iiVidM8Jep6Q8wLrqyc3kvUWuV2xvz8rr87Yw7pSkMeJ2rt7fyALfOuZteXquZmpfIbvPQpU7lyZ9cQ75B+F1Frb+YHbJmGdP2U8X6DjxK1xv7CNLzrz5m9q8wbXiZr6QX2F9mtQ8y7dtXb0V+QtfRjdhfmZrrrD0Ts3RcbxNHvUNXdYvctezPd9aW7vbmr3H19nqilT7L7lr2Z7vrdrr20Vn6F14laepTdt+wB2PV3M+0xXVlbP/xrslZ+yd7CPrFlQ3eZ+/PqWydfI2vlK+wszLqv++9DmIVC9S369/2VsIWXK08Q7QnZ9XVZ6q9lqhfGH5K18B12FfaM6f7bEPaXWD1nniBrofqM0CzLOj+nbpm3G6vnzBt/RHi06psQPfdt0q6yv8XqYf2BPxMe6cXqAWJPx+5PIalXXfuz9KcJj/Rldtuxf77b/Skk+dSj+rLf9nPCo/zkTewm7DI1hykk9SdVtUPk+qukR7j3TnbasQdIDlNI6u3G+pH98d+THvTCR9llJ/G+Xx5/dJc4Z+ofpPrsX4gP+OOn2OFM4s/dszhjUteZvTcLRkf9XdX96h/cJQ+Qrj9PPZd46XsfGvzMb8gddz7B4DN2DZLH3yDu2Nlv/7PH73+OvNH338NQJP72KI8pVSSmVbOEuuWeNg9q648texfT/cepKnV4m/cch9/7B1uMV7/7QQadS32twv5HkrrMPAPYsl/q8JEfJP/K+7XbH2LAhWSHc1i2n0t9/in1pQ7Xv7n/KcQHd80H7raSf7yY0QGSnkXSX0TWuzFfrO7L5vurxfM3UlUmP4KY0Qwi0jU0fzXbI/1+6gO7O+mflc3ny5CaBVPzyGGpD2Rudf3tByP5aexLfFldcjrKa0Y90/CLXbf8IrLU+mMrp0vuucRnM3eWLQ6Shu/KyO+7IXZSixFx/EHS1NMsPiZjpa8OYjk8piXNX8qU2xXmXD89jYjl+FBLxomHCEh9TU0eGq4QO6upV9a48ejannLZXXHVyOnIZr2YpJclo5m3W54T6rnGaRHL2ahXO1KG0+ZT5UzW/Whan9WsV8vFbDKdny6a5xzV9b9cPuiIjrSRx3N219idEFrK4Z26g9yZtZV8vzi0rnEB3lK+6499qW+Haa/2hmjmev+HqTW/G37X6HWeNnH+H4RzjV+NepTsVx8pg0vPJPOM715c42OWosYqxOIjrTdp3ZJVyLNF9UatTpx54KPjwmB67PQ6jTp37OtNFod7sgh+ruzpDaZOUxbTq3CqGNKU1X5XVovJlWyG6vUHw/FkNh2PRoOrMmcURVEURVEURUsnJ/8DOS7p+D/avlkAAAAASUVORK5CYII=;" parent="1" vertex="1">
                    <mxGeometry x="639" y="462.33" width="102" height="102" as="geometry"/>
                </mxCell>
                <mxCell id="4" style="edgeStyle=orthogonalEdgeStyle;rounded=0;orthogonalLoop=1;jettySize=auto;html=1;fontSize=30;strokeWidth=3;" parent="1" source="6" target="10" edge="1">
                    <mxGeometry relative="1" as="geometry"/>
                </mxCell>
                <mxCell id="5" style="edgeStyle=orthogonalEdgeStyle;rounded=0;orthogonalLoop=1;jettySize=auto;html=1;entryX=0.5;entryY=0;entryDx=0;entryDy=0;strokeWidth=3;fontSize=30;" parent="1" source="6" target="44" edge="1">
                    <mxGeometry relative="1" as="geometry"/>
                </mxCell>
                <mxCell id="6" value="&lt;font style=&quot;font-size: 30px;&quot;&gt;Intertidal sample&lt;/font&gt;" style="text;html=1;strokeColor=none;fillColor=none;align=center;verticalAlign=middle;whiteSpace=wrap;rounded=0;" parent="1" vertex="1">
                    <mxGeometry x="680" y="212.33" width="120" height="117.67" as="geometry"/>
                </mxCell>
                <mxCell id="7" style="edgeStyle=orthogonalEdgeStyle;rounded=0;orthogonalLoop=1;jettySize=auto;html=1;fontSize=30;strokeWidth=3;" parent="1" source="8" target="12" edge="1">
                    <mxGeometry relative="1" as="geometry"/>
                </mxCell>
                <mxCell id="8" value="&lt;font style=&quot;font-size: 30px;&quot;&gt;Temperature data&lt;/font&gt;" style="text;html=1;strokeColor=none;fillColor=none;align=center;verticalAlign=middle;whiteSpace=wrap;rounded=0;" parent="1" vertex="1">
                    <mxGeometry x="650" y="402.33" width="180" height="120" as="geometry"/>
                </mxCell>
                <mxCell id="9" style="edgeStyle=orthogonalEdgeStyle;rounded=0;orthogonalLoop=1;jettySize=auto;html=1;entryX=0.5;entryY=0;entryDx=0;entryDy=0;fontSize=30;strokeWidth=3;" parent="1" source="10" target="31" edge="1">
                    <mxGeometry relative="1" as="geometry"/>
                </mxCell>
                <mxCell id="10" value="&lt;font style=&quot;font-size: 30px;&quot;&gt;Species presences&lt;/font&gt;" style="text;html=1;strokeColor=none;fillColor=none;align=center;verticalAlign=middle;whiteSpace=wrap;rounded=0;" parent="1" vertex="1">
                    <mxGeometry x="1110" y="212.32999999999998" width="120" height="120" as="geometry"/>
                </mxCell>
                <mxCell id="11" value="" style="endArrow=classic;html=1;rounded=0;fontSize=30;exitX=0.5;exitY=1;exitDx=0;exitDy=0;edgeStyle=orthogonalEdgeStyle;strokeWidth=3;" parent="1" source="6" target="8" edge="1">
                    <mxGeometry width="50" height="50" relative="1" as="geometry">
                        <mxPoint x="759.9999999999998" y="423.33" as="sourcePoint"/>
                        <mxPoint x="1170" y="574.33" as="targetPoint"/>
                    </mxGeometry>
                </mxCell>
                <mxCell id="12" value="eMoF Table" style="shape=table;startSize=52;container=1;collapsible=0;childLayout=tableLayout;fontStyle=1;align=center;fontSize=30;fillColor=#d5e8d4;strokeColor=#82b366;" parent="1" vertex="1">
                    <mxGeometry x="157" y="680" width="1166" height="286" as="geometry"/>
                </mxCell>
                <mxCell id="13" value="" style="shape=tableRow;horizontal=0;startSize=0;swimlaneHead=0;swimlaneBody=0;top=0;left=0;bottom=0;right=0;collapsible=0;dropTarget=0;fillColor=none;points=[[0,0.5],[1,0.5]];portConstraint=eastwest;fontSize=30;" parent="12" vertex="1">
                    <mxGeometry y="52" width="1166" height="58" as="geometry"/>
                </mxCell>
                <mxCell id="14" value="eventID" style="shape=partialRectangle;html=1;whiteSpace=wrap;connectable=0;fillColor=none;top=0;left=0;bottom=0;right=0;overflow=hidden;fontSize=30;fontStyle=1;align=center;" parent="13" vertex="1">
                    <mxGeometry width="120" height="58" as="geometry">
                        <mxRectangle width="120" height="58" as="alternateBounds"/>
                    </mxGeometry>
                </mxCell>
                <mxCell id="15" value="occurrenceID" style="shape=partialRectangle;html=1;whiteSpace=wrap;connectable=0;fillColor=none;top=0;left=0;bottom=0;right=0;overflow=hidden;fontSize=30;fontStyle=1;align=center;" parent="13" vertex="1">
                    <mxGeometry x="120" width="210" height="58" as="geometry">
                        <mxRectangle width="210" height="58" as="alternateBounds"/>
                    </mxGeometry>
                </mxCell>
                <mxCell id="16" value="&lt;span style=&quot;color: rgb(0, 0, 0); font-family: Helvetica; font-size: 30px; font-style: normal; font-variant-ligatures: normal; font-variant-caps: normal; font-weight: 700; letter-spacing: normal; orphans: 2; text-indent: 0px; text-transform: none; widows: 2; word-spacing: 0px; -webkit-text-stroke-width: 0px; text-decoration-thickness: initial; text-decoration-style: initial; text-decoration-color: initial; float: none; display: inline !important;&quot;&gt;measurementType&lt;/span&gt;" style="shape=partialRectangle;html=1;whiteSpace=wrap;connectable=0;fillColor=none;top=0;left=0;bottom=0;right=0;overflow=hidden;fontSize=30;fontStyle=1;align=center;" parent="13" vertex="1">
                    <mxGeometry x="330" width="274" height="58" as="geometry">
                        <mxRectangle width="274" height="58" as="alternateBounds"/>
                    </mxGeometry>
                </mxCell>
                <mxCell id="17" value="measurementValue" style="shape=partialRectangle;html=1;whiteSpace=wrap;connectable=0;fillColor=none;top=0;left=0;bottom=0;right=0;overflow=hidden;fontSize=30;fontStyle=1;align=center;" parent="13" vertex="1">
                    <mxGeometry x="604" width="281" height="58" as="geometry">
                        <mxRectangle width="281" height="58" as="alternateBounds"/>
                    </mxGeometry>
                </mxCell>
                <mxCell id="18" value="measurementUnit" style="shape=partialRectangle;html=1;whiteSpace=wrap;connectable=0;fillColor=none;top=0;left=0;bottom=0;right=0;overflow=hidden;fontSize=30;fontStyle=1;align=center;" parent="13" vertex="1">
                    <mxGeometry x="885" width="281" height="58" as="geometry">
                        <mxRectangle width="281" height="58" as="alternateBounds"/>
                    </mxGeometry>
                </mxCell>
                <mxCell id="19" value="" style="shape=tableRow;horizontal=0;startSize=0;swimlaneHead=0;swimlaneBody=0;top=0;left=0;bottom=0;right=0;collapsible=0;dropTarget=0;fillColor=none;points=[[0,0.5],[1,0.5]];portConstraint=eastwest;fontSize=30;" parent="12" vertex="1">
                    <mxGeometry y="110" width="1166" height="60" as="geometry"/>
                </mxCell>
                <mxCell id="20" value="s1_q1r1" style="shape=partialRectangle;html=1;whiteSpace=wrap;connectable=0;fillColor=none;top=0;left=0;bottom=0;right=0;overflow=hidden;fontSize=30;" parent="19" vertex="1">
                    <mxGeometry width="120" height="60" as="geometry">
                        <mxRectangle width="120" height="60" as="alternateBounds"/>
                    </mxGeometry>
                </mxCell>
                <mxCell id="21" value="" style="shape=partialRectangle;html=1;whiteSpace=wrap;connectable=0;fillColor=none;top=0;left=0;bottom=0;right=0;overflow=hidden;fontSize=30;" parent="19" vertex="1">
                    <mxGeometry x="120" width="210" height="60" as="geometry">
                        <mxRectangle width="210" height="60" as="alternateBounds"/>
                    </mxGeometry>
                </mxCell>
                <mxCell id="22" value="&lt;span style=&quot;color: rgb(0, 0, 0); font-family: Helvetica; font-size: 30px; font-style: normal; font-variant-ligatures: normal; font-variant-caps: normal; font-weight: 400; letter-spacing: normal; orphans: 2; text-align: center; text-indent: 0px; text-transform: none; widows: 2; word-spacing: 0px; -webkit-text-stroke-width: 0px; text-decoration-thickness: initial; text-decoration-style: initial; text-decoration-color: initial; float: none; display: inline !important;&quot;&gt;temperature&lt;/span&gt;" style="shape=partialRectangle;html=1;whiteSpace=wrap;connectable=0;fillColor=none;top=0;left=0;bottom=0;right=0;overflow=hidden;fontSize=30;" parent="19" vertex="1">
                    <mxGeometry x="330" width="274" height="60" as="geometry">
                        <mxRectangle width="274" height="60" as="alternateBounds"/>
                    </mxGeometry>
                </mxCell>
                <mxCell id="23" value="25" style="shape=partialRectangle;html=1;whiteSpace=wrap;connectable=0;fillColor=none;top=0;left=0;bottom=0;right=0;overflow=hidden;fontSize=30;" parent="19" vertex="1">
                    <mxGeometry x="604" width="281" height="60" as="geometry">
                        <mxRectangle width="281" height="60" as="alternateBounds"/>
                    </mxGeometry>
                </mxCell>
                <mxCell id="24" value="degrees Celsius" style="shape=partialRectangle;html=1;whiteSpace=wrap;connectable=0;fillColor=none;top=0;left=0;bottom=0;right=0;overflow=hidden;fontSize=30;" parent="19" vertex="1">
                    <mxGeometry x="885" width="281" height="60" as="geometry">
                        <mxRectangle width="281" height="60" as="alternateBounds"/>
                    </mxGeometry>
                </mxCell>
                <mxCell id="70" style="shape=tableRow;horizontal=0;startSize=0;swimlaneHead=0;swimlaneBody=0;top=0;left=0;bottom=0;right=0;collapsible=0;dropTarget=0;fillColor=none;points=[[0,0.5],[1,0.5]];portConstraint=eastwest;fontSize=30;" parent="12" vertex="1">
                    <mxGeometry y="170" width="1166" height="58" as="geometry"/>
                </mxCell>
                <mxCell id="71" value="s1_q2r1" style="shape=partialRectangle;html=1;whiteSpace=wrap;connectable=0;fillColor=none;top=0;left=0;bottom=0;right=0;overflow=hidden;fontSize=30;" parent="70" vertex="1">
                    <mxGeometry width="120" height="58" as="geometry">
                        <mxRectangle width="120" height="58" as="alternateBounds"/>
                    </mxGeometry>
                </mxCell>
                <mxCell id="72" style="shape=partialRectangle;html=1;whiteSpace=wrap;connectable=0;fillColor=none;top=0;left=0;bottom=0;right=0;overflow=hidden;fontSize=30;" parent="70" vertex="1">
                    <mxGeometry x="120" width="210" height="58" as="geometry">
                        <mxRectangle width="210" height="58" as="alternateBounds"/>
                    </mxGeometry>
                </mxCell>
                <mxCell id="73" value="temperature" style="shape=partialRectangle;html=1;whiteSpace=wrap;connectable=0;fillColor=none;top=0;left=0;bottom=0;right=0;overflow=hidden;fontSize=30;" parent="70" vertex="1">
                    <mxGeometry x="330" width="274" height="58" as="geometry">
                        <mxRectangle width="274" height="58" as="alternateBounds"/>
                    </mxGeometry>
                </mxCell>
                <mxCell id="74" value="20" style="shape=partialRectangle;html=1;whiteSpace=wrap;connectable=0;fillColor=none;top=0;left=0;bottom=0;right=0;overflow=hidden;fontSize=30;" parent="70" vertex="1">
                    <mxGeometry x="604" width="281" height="58" as="geometry">
                        <mxRectangle width="281" height="58" as="alternateBounds"/>
                    </mxGeometry>
                </mxCell>
                <mxCell id="75" value="degrees Celsius" style="shape=partialRectangle;html=1;whiteSpace=wrap;connectable=0;fillColor=none;top=0;left=0;bottom=0;right=0;overflow=hidden;fontSize=30;" parent="70" vertex="1">
                    <mxGeometry x="885" width="281" height="58" as="geometry">
                        <mxRectangle width="281" height="58" as="alternateBounds"/>
                    </mxGeometry>
                </mxCell>
                <mxCell id="25" style="shape=tableRow;horizontal=0;startSize=0;swimlaneHead=0;swimlaneBody=0;top=0;left=0;bottom=0;right=0;collapsible=0;dropTarget=0;fillColor=none;points=[[0,0.5],[1,0.5]];portConstraint=eastwest;fontSize=30;" parent="12" vertex="1">
                    <mxGeometry y="228" width="1166" height="58" as="geometry"/>
                </mxCell>
                <mxCell id="26" value="s1_q1r1" style="shape=partialRectangle;html=1;whiteSpace=wrap;connectable=0;fillColor=none;top=0;left=0;bottom=0;right=0;overflow=hidden;fontSize=30;" parent="25" vertex="1">
                    <mxGeometry width="120" height="58" as="geometry">
                        <mxRectangle width="120" height="58" as="alternateBounds"/>
                    </mxGeometry>
                </mxCell>
                <mxCell id="27" value="s1_q2r1_occ2" style="shape=partialRectangle;html=1;whiteSpace=wrap;connectable=0;fillColor=none;top=0;left=0;bottom=0;right=0;overflow=hidden;fontSize=30;" parent="25" vertex="1">
                    <mxGeometry x="120" width="210" height="58" as="geometry">
                        <mxRectangle width="210" height="58" as="alternateBounds"/>
                    </mxGeometry>
                </mxCell>
                <mxCell id="28" value="percent cover" style="shape=partialRectangle;html=1;whiteSpace=wrap;connectable=0;fillColor=none;top=0;left=0;bottom=0;right=0;overflow=hidden;fontSize=30;" parent="25" vertex="1">
                    <mxGeometry x="330" width="274" height="58" as="geometry">
                        <mxRectangle width="274" height="58" as="alternateBounds"/>
                    </mxGeometry>
                </mxCell>
                <mxCell id="29" value="30" style="shape=partialRectangle;html=1;whiteSpace=wrap;connectable=0;fillColor=none;top=0;left=0;bottom=0;right=0;overflow=hidden;fontSize=30;" parent="25" vertex="1">
                    <mxGeometry x="604" width="281" height="58" as="geometry">
                        <mxRectangle width="281" height="58" as="alternateBounds"/>
                    </mxGeometry>
                </mxCell>
                <mxCell id="30" value="percent" style="shape=partialRectangle;html=1;whiteSpace=wrap;connectable=0;fillColor=none;top=0;left=0;bottom=0;right=0;overflow=hidden;fontSize=30;" parent="25" vertex="1">
                    <mxGeometry x="885" width="281" height="58" as="geometry">
                        <mxRectangle width="281" height="58" as="alternateBounds"/>
                    </mxGeometry>
                </mxCell>
                <mxCell id="31" value="Occurrence Table" style="shape=table;startSize=52;container=1;collapsible=0;childLayout=tableLayout;fontStyle=1;align=center;fontSize=30;fillColor=#dae8fc;strokeColor=#6c8ebf;" parent="1" vertex="1">
                    <mxGeometry x="840" y="402.33" width="660.0000000000007" height="196.34000000000006" as="geometry"/>
                </mxCell>
                <mxCell id="32" value="" style="shape=tableRow;horizontal=0;startSize=0;swimlaneHead=0;swimlaneBody=0;top=0;left=0;bottom=0;right=0;collapsible=0;dropTarget=0;fillColor=none;points=[[0,0.5],[1,0.5]];portConstraint=eastwest;fontSize=30;" parent="31" vertex="1">
                    <mxGeometry y="52" width="660.0000000000007" height="46" as="geometry"/>
                </mxCell>
                <mxCell id="33" value="eventID" style="shape=partialRectangle;html=1;whiteSpace=wrap;connectable=0;fillColor=none;top=0;left=0;bottom=0;right=0;overflow=hidden;fontSize=30;fontStyle=1" parent="32" vertex="1">
                    <mxGeometry width="137" height="46" as="geometry">
                        <mxRectangle width="137" height="46" as="alternateBounds"/>
                    </mxGeometry>
                </mxCell>
                <mxCell id="34" value="occurrenceID" style="shape=partialRectangle;html=1;whiteSpace=wrap;connectable=0;fillColor=none;top=0;left=0;bottom=0;right=0;overflow=hidden;fontSize=30;fontStyle=1" parent="32" vertex="1">
                    <mxGeometry x="137" width="218" height="46" as="geometry">
                        <mxRectangle width="218" height="46" as="alternateBounds"/>
                    </mxGeometry>
                </mxCell>
                <mxCell id="35" value="scientificName" style="shape=partialRectangle;html=1;whiteSpace=wrap;connectable=0;fillColor=none;top=0;left=0;bottom=0;right=0;overflow=hidden;fontSize=30;fontStyle=1" parent="32" vertex="1">
                    <mxGeometry x="355" width="305" height="46" as="geometry">
                        <mxRectangle width="305" height="46" as="alternateBounds"/>
                    </mxGeometry>
                </mxCell>
                <mxCell id="36" value="" style="shape=tableRow;horizontal=0;startSize=0;swimlaneHead=0;swimlaneBody=0;top=0;left=0;bottom=0;right=0;collapsible=0;dropTarget=0;fillColor=none;points=[[0,0.5],[1,0.5]];portConstraint=eastwest;fontSize=30;" parent="31" vertex="1">
                    <mxGeometry y="98" width="660.0000000000007" height="48" as="geometry"/>
                </mxCell>
                <mxCell id="37" value="s1_q1r1" style="shape=partialRectangle;html=1;whiteSpace=wrap;connectable=0;fillColor=none;top=0;left=0;bottom=0;right=0;overflow=hidden;fontSize=30;" parent="36" vertex="1">
                    <mxGeometry width="137" height="48" as="geometry">
                        <mxRectangle width="137" height="48" as="alternateBounds"/>
                    </mxGeometry>
                </mxCell>
                <mxCell id="38" value="s1_q2r1_occ1" style="shape=partialRectangle;html=1;whiteSpace=wrap;connectable=0;fillColor=none;top=0;left=0;bottom=0;right=0;overflow=hidden;fontSize=30;" parent="36" vertex="1">
                    <mxGeometry x="137" width="218" height="48" as="geometry">
                        <mxRectangle width="218" height="48" as="alternateBounds"/>
                    </mxGeometry>
                </mxCell>
                <mxCell id="39" value="Saccharina latissima" style="shape=partialRectangle;html=1;whiteSpace=wrap;connectable=0;fillColor=none;top=0;left=0;bottom=0;right=0;overflow=hidden;fontSize=30;" parent="36" vertex="1">
                    <mxGeometry x="355" width="305" height="48" as="geometry">
                        <mxRectangle width="305" height="48" as="alternateBounds"/>
                    </mxGeometry>
                </mxCell>
                <mxCell id="40" style="shape=tableRow;horizontal=0;startSize=0;swimlaneHead=0;swimlaneBody=0;top=0;left=0;bottom=0;right=0;collapsible=0;dropTarget=0;fillColor=none;points=[[0,0.5],[1,0.5]];portConstraint=eastwest;fontSize=30;" parent="31" vertex="1">
                    <mxGeometry y="146" width="660.0000000000007" height="50" as="geometry"/>
                </mxCell>
                <mxCell id="41" value="s1_q1r1" style="shape=partialRectangle;html=1;whiteSpace=wrap;connectable=0;fillColor=none;top=0;left=0;bottom=0;right=0;overflow=hidden;fontSize=30;" parent="40" vertex="1">
                    <mxGeometry width="137" height="50" as="geometry">
                        <mxRectangle width="137" height="50" as="alternateBounds"/>
                    </mxGeometry>
                </mxCell>
                <mxCell id="42" value="s1_q2r1_occ2" style="shape=partialRectangle;html=1;whiteSpace=wrap;connectable=0;fillColor=none;top=0;left=0;bottom=0;right=0;overflow=hidden;fontSize=30;" parent="40" vertex="1">
                    <mxGeometry x="137" width="218" height="50" as="geometry">
                        <mxRectangle width="218" height="50" as="alternateBounds"/>
                    </mxGeometry>
                </mxCell>
                <mxCell id="43" value="Cancer irroratus" style="shape=partialRectangle;html=1;whiteSpace=wrap;connectable=0;fillColor=none;top=0;left=0;bottom=0;right=0;overflow=hidden;fontSize=30;" parent="40" vertex="1">
                    <mxGeometry x="355" width="305" height="50" as="geometry">
                        <mxRectangle width="305" height="50" as="alternateBounds"/>
                    </mxGeometry>
                </mxCell>
                <mxCell id="44" value="event Table" style="shape=table;startSize=52;container=1;collapsible=0;childLayout=tableLayout;fontStyle=1;align=center;fontSize=30;fillColor=#ffe6cc;strokeColor=#d79b00;" parent="1" vertex="1">
                    <mxGeometry x="90" y="302.33" width="540" height="247.67" as="geometry"/>
                </mxCell>
                <mxCell id="45" value="" style="shape=tableRow;horizontal=0;startSize=0;swimlaneHead=0;swimlaneBody=0;top=0;left=0;bottom=0;right=0;collapsible=0;dropTarget=0;fillColor=none;points=[[0,0.5],[1,0.5]];portConstraint=eastwest;fontSize=30;" parent="44" vertex="1">
                    <mxGeometry y="52" width="540" height="65" as="geometry"/>
                </mxCell>
                <mxCell id="46" value="eventID" style="shape=partialRectangle;html=1;whiteSpace=wrap;connectable=0;fillColor=none;top=0;left=0;bottom=0;right=0;overflow=hidden;fontSize=30;fontStyle=1" parent="45" vertex="1">
                    <mxGeometry width="135" height="65" as="geometry">
                        <mxRectangle width="135" height="65" as="alternateBounds"/>
                    </mxGeometry>
                </mxCell>
                <mxCell id="47" value="eventDate" style="shape=partialRectangle;html=1;whiteSpace=wrap;connectable=0;fillColor=none;top=0;left=0;bottom=0;right=0;overflow=hidden;fontSize=30;fontStyle=1" parent="45" vertex="1">
                    <mxGeometry x="135" width="203" height="65" as="geometry">
                        <mxRectangle width="203" height="65" as="alternateBounds"/>
                    </mxGeometry>
                </mxCell>
                <mxCell id="61" value="locality" style="shape=partialRectangle;html=1;whiteSpace=wrap;connectable=0;fillColor=none;top=0;left=0;bottom=0;right=0;overflow=hidden;fontSize=30;fontStyle=1" parent="45" vertex="1">
                    <mxGeometry x="338" width="202" height="65" as="geometry">
                        <mxRectangle width="202" height="65" as="alternateBounds"/>
                    </mxGeometry>
                </mxCell>
                <mxCell id="48" value="" style="shape=tableRow;horizontal=0;startSize=0;swimlaneHead=0;swimlaneBody=0;top=0;left=0;bottom=0;right=0;collapsible=0;dropTarget=0;fillColor=none;points=[[0,0.5],[1,0.5]];portConstraint=eastwest;fontSize=30;" parent="44" vertex="1">
                    <mxGeometry y="117" width="540" height="64" as="geometry"/>
                </mxCell>
                <mxCell id="49" value="s1_q1r1" style="shape=partialRectangle;html=1;whiteSpace=wrap;connectable=0;fillColor=none;top=0;left=0;bottom=0;right=0;overflow=hidden;fontSize=30;" parent="48" vertex="1">
                    <mxGeometry width="135" height="64" as="geometry">
                        <mxRectangle width="135" height="64" as="alternateBounds"/>
                    </mxGeometry>
                </mxCell>
                <mxCell id="50" value="2012-03-22" style="shape=partialRectangle;html=1;whiteSpace=wrap;connectable=0;fillColor=none;top=0;left=0;bottom=0;right=0;overflow=hidden;fontSize=30;" parent="48" vertex="1">
                    <mxGeometry x="135" width="203" height="64" as="geometry">
                        <mxRectangle width="203" height="64" as="alternateBounds"/>
                    </mxGeometry>
                </mxCell>
                <mxCell id="62" value="Way&#39;s Point" style="shape=partialRectangle;html=1;whiteSpace=wrap;connectable=0;fillColor=none;top=0;left=0;bottom=0;right=0;overflow=hidden;fontSize=30;" parent="48" vertex="1">
                    <mxGeometry x="338" width="202" height="64" as="geometry">
                        <mxRectangle width="202" height="64" as="alternateBounds"/>
                    </mxGeometry>
                </mxCell>
                <mxCell id="51" style="shape=tableRow;horizontal=0;startSize=0;swimlaneHead=0;swimlaneBody=0;top=0;left=0;bottom=0;right=0;collapsible=0;dropTarget=0;fillColor=none;points=[[0,0.5],[1,0.5]];portConstraint=eastwest;fontSize=30;" parent="44" vertex="1">
                    <mxGeometry y="181" width="540" height="67" as="geometry"/>
                </mxCell>
                <mxCell id="52" value="s1_q2r1" style="shape=partialRectangle;html=1;whiteSpace=wrap;connectable=0;fillColor=none;top=0;left=0;bottom=0;right=0;overflow=hidden;fontSize=30;" parent="51" vertex="1">
                    <mxGeometry width="135" height="67" as="geometry">
                        <mxRectangle width="135" height="67" as="alternateBounds"/>
                    </mxGeometry>
                </mxCell>
                <mxCell id="53" value="&lt;span style=&quot;color: rgb(0, 0, 0); font-family: Helvetica; font-size: 30px; font-style: normal; font-variant-ligatures: normal; font-variant-caps: normal; font-weight: 400; letter-spacing: normal; orphans: 2; text-align: center; text-indent: 0px; text-transform: none; widows: 2; word-spacing: 0px; -webkit-text-stroke-width: 0px; white-space: normal; text-decoration-thickness: initial; text-decoration-style: initial; text-decoration-color: initial; float: none; display: inline !important;&quot;&gt;2012-03-22&lt;/span&gt;" style="shape=partialRectangle;html=1;whiteSpace=wrap;connectable=0;fillColor=none;top=0;left=0;bottom=0;right=0;overflow=hidden;fontSize=30;" parent="51" vertex="1">
                    <mxGeometry x="135" width="203" height="67" as="geometry">
                        <mxRectangle width="203" height="67" as="alternateBounds"/>
                    </mxGeometry>
                </mxCell>
                <mxCell id="63" value="Pointer&#39;s Cove" style="shape=partialRectangle;html=1;whiteSpace=wrap;connectable=0;fillColor=none;top=0;left=0;bottom=0;right=0;overflow=hidden;fontSize=30;" parent="51" vertex="1">
                    <mxGeometry x="338" width="202" height="67" as="geometry">
                        <mxRectangle width="202" height="67" as="alternateBounds"/>
                    </mxGeometry>
                </mxCell>
                <mxCell id="54" style="edgeStyle=orthogonalEdgeStyle;rounded=0;orthogonalLoop=1;jettySize=auto;html=1;dashed=1;strokeWidth=3;entryX=0;entryY=0.5;entryDx=0;entryDy=0;" parent="1" source="48" target="19" edge="1">
                    <mxGeometry relative="1" as="geometry">
                        <Array as="points">
                            <mxPoint x="60" y="450"/>
                            <mxPoint x="60" y="820"/>
                        </Array>
                    </mxGeometry>
                </mxCell>
                <mxCell id="56" value="" style="shape=image;verticalLabelPosition=bottom;labelBackgroundColor=default;verticalAlign=top;aspect=fixed;imageAspect=0;image=data:image/png,iVBORw0KGgoAAAANSUhEUgAAAHIAAACPCAMAAAARD3+IAAAAAXNSR0IArs4c6QAAAARnQU1BAACxjwv8YQUAAABjUExURQAAAGCAQFCAMFWANViAOFOAM1WANVKAN1SDNFWDNVODNlSCNFWCNVOCNlSCNFOCNVSBNlWCNVSCNVSCNFWCNVSCNVWCNFSCNVSDNVWDNVSDNVSCNVWCNVSCNVSCNVSCNVSCNRO/PRQAAAAgdFJOUwAIEBggKDA4QEhQWGBocHiAh4+Xn6evt7/Hz9ff5+/3v+H4wgAAAAlwSFlzAAAXEQAAFxEByibzPwAABt9JREFUeF69W+tC8jAMZYCgiIoCMhQ23/8pv67NtiY5KRus3/klXbf0kstJWmc5sNzsTmWDL2rIi8Xbqf4j/MypMSeWB5LW4L9I/Ogm6HBZUGtOxFP8q5+oNSdeSVjAllqz4kLCPM7UmBVLEhawotaseCZhHr/UmBdbkuZxoMa8YCKP1JgXHyTN47+YyGxH0gIuS2rOCS7yr9pQe0Z8kqwO2eNI8UuSehwLepYH8yPJiZF1ntsrSWHI6BBef0iGwA89nxzvzJ/H+KAeE2N9pu9r1HmCNPM5Ap/UZ1qkJF6y2MgqJjsC9Zo6TQtkjC1eqc/E0B6nQy43YIs8UY/JYS7sbzbazJhAhCpftCyga82mOh5fJIPjm55mwYKEcOQlsd8kJUY2bQ14ITExcpNYoECZZ8kzvIA6L+eBpvlOzzKBZT+EzFx9Q2IYfrIuLXYGOXPoBQ7S2bidk2iRLXo+OQrMmBtQj2kx3+wr+r7GlTpNh2LzZRB0wsQ0pNie6MMmJibNW3s5W9Qv1Hca7OmzCVyfqe804FUziMO0VMsiOz2+p6YEK/qwhcP0Dt1ikQGHHFwSxg1CnafswsuRHLmykITT2VEXiPmuLMv9XaqVWNnfRFx+If+xp9+jYJcGEtN87qLqPYQzlTibXica5z2+EDMPj6vhd57oeYN7KrUpB2QobewlL9Q2Cu/0MkCFNSh+4y6RiWkaPJ3VTd3v1/1vediNqZjY8ctYWJbf9znFdT/YI7/RKxK1ZSWxYVVsZ4cWwFCC57C32EcR84jzjNGYgZVFVEW7ftpRhKUtX/ygaiBL0g7onKxHsEx7K4pFg+xU5VqntO6xsO5mJXL9Aa6+kBXfG0FrzmblOot9uV0+KSSJvaYTuznr32xd7P4a3JqmknjjpHLN18QbRUk/CDemudAhuk5wSHYc7hAKFzLmJgnMCvk6M0wuZOniQqMTKp/amhcYK63KwEZmElXb8Ul8xzYULNHtJhzlQq1IH5034ktnwyH0bEICLq02X3rQYC2Kx9UWDbuwyV2N9HxNDztw2rMV5o08Zoo1w6KL3ErBAAt1+niUvCiZ5aGii3pBsjsdBC9cqDBgDlQp1CmTlAkqq4zoJkWW1IlBv3Hia4sCb+wXUmdNuFAI2AMPAXNqjREPPpUB4Zodqihy74icWdzDPm06YzeL1oUTenS0Ewdfo1z3d32jDgLSxTQQrBPpBxsU3M36E05x/Qk9h/CmN0WirOsbsax1f2WMod6LPUci+Qx01gXXVNyjCCh3r5oiAZGyrCqzLujPUdXkiEMFUB/JpIQGVdTMAc4UrIAIzuoVPeUuCrMWPXSTHwORKijxRA+6OaBkuJ8DYFL0pAcvNQ1dWJNoaPXR6aeIcTAv0M7aLO6DUCJdp8xmMTdTntPcS5CQy1moQA5P1HQBw8ohQKgQp9igaIjqOJqymNNEviBmBrBM+a3XFrAk6+ANFlurQ+tnjRitIxdgSeYhBnSOLR8xWcGP8OxL5NOtlZ29fJXH3W4v32mct1EgaMAv3y5Q3FW6LyE3rbEFELg6xDwEn2ncTs+lZTljAe6wR1dLWeGR/Zrr2kHmrU7hEtVCZwRBhQpMr+s9JA4c0k26uKgTqRjeluaIe1wO29tTdJAW2vB/O/FyaDqAPOn6NvhMQb7sTdNKLxs0nlF5Q4tsQsiPh7GuoPp7uDGBcvSIcxrlhqi9MHXITUc/G3NuKs/S+ruR7UmAQFOIUdUZmwwAyF2J3l3DDW3SJW24Y25xyuwjHi7gbyFq6o0eU9OWChuLBK4/XL0FWZJ/YRjkhsUiNV0h/gwizSAf4KEyzXhTlBNqPTbIJocX7DUj6bNpnfi2XLfQijX8poj+bNVxaFXN6QuV2kpGXE7R461aNqKWr99nzRBlHScBlKKTkqgV6A+AlM8yzoYg4Ek+lfaU+XXhuaCGDqMOilHg+7v6DdWMsdsxPppqxLI6QHpJ9VRtmK1M9qQcbpQBmEH628sg9pPM2DXfcX8cU1pPuhfagYdd64nhffdSdIx3CBHwSUWwkHP0NjtKcXrADCQ80jTap1adARm1p9tAXIceKcMNrJJ+WKndAOgjipZa6NqaX8rw50P3/pZSUTqzV3mhV1r/14O3G+XhT+fdlT/1+bb/69E7nNwg+rgpfUVQ2WYjHr9nyNhpb9/SnwaNacY35hzdQOziI7bPd7kMGuOc7CSXuXuDiD/HNrn9F9a3epp/Le1SLqaKscqWI1KPYWi1k1VCIzr7gOVboJIW/yeYPgMZQXCGI0yTB4fOMLNInC2ayCEKDOTZ6zwSnXFelIoQ133U1YyCdxGTWOFgNFaSupOWAS7KnAfXHnrMZv8AYqmy0KtRTY4AAAAASUVORK5CYII=;" parent="1" vertex="1">
                    <mxGeometry x="1220" y="180" width="74" height="92.82" as="geometry"/>
                </mxCell>
                <mxCell id="57" value="" style="shape=image;verticalLabelPosition=bottom;labelBackgroundColor=default;verticalAlign=top;aspect=fixed;imageAspect=0;image=data:image/png,iVBORw0KGgoAAAANSUhEUgAAAJYAAACWCAMAAAAL34HQAAAAAXNSR0IArs4c6QAAAARnQU1BAACxjwv8YQUAAAAzUExURQAAAL8AAL8AAL8AAL8AAL8AAL8AAL8AAMEAAMEAAMAAAMAAAMAAAMAAAMAAAMAAAMAAAKW8Y94AAAAQdFJOUwAQIDBAUGBwf4+fr7/P3+8FUYRsAAAACXBIWXMAABcRAAAXEQHKJvM/AAAGAElEQVR4Xu2c2bKjIBBAr9G4RI38/9cOSwPNIju3bk15niaOMUfA7gac+Xl4eHh4eHhIYXiN7xf8uRnjPFVdc9ouQsgMn5ox04uSrdRsOtnXe2kRckzwOYeBtxSjlxZtMTiQzghNRemnRc4RDiXy+sIXKR21yJXlha26amV5DboHKV21yDXA0TgbfEXQV4vscDTKBF8AOmuRNxyOYHZhf60LDkdY4HRJby2ywPEwVmP110pqrjecrOiulfQLO5yr6K91wl8EGOBUTX8tEq8mnD78Da34T6xwpsb5zpQlujj1i6v1gb+554AzNbbEdCUHZsaH2F6uVvxZhBMRltZ0pQxRDX2ELC9Xi8QS4wvOQ5ha1Co1LgtYMWJ6ebRiY36E8xCGFrMiBD4kwb9geHm0YuWNlaYZWEtYRdscw79geHm07OFn48YHrAVWCXFGIUcF+mGPljV+HYJa0ipHS4Vn7VWgFepEZVXQiRTl5dGK1VyBIa+t8oc8R3oVjC03JUotZPUVR9JAdRL8uEcrOtHQPy4RWsiKHPxIIjhtCC+PVnRU3CQfbJU3GzaSLPdyteJpw5z1MJiWYZU6KRCYzzbzcrXiqdpb2JhWOfHBGa3Uy9WC4RvAVwZaVlmZWiRFxOTRSrjPD5yqmC0rssKZidgWk6OVUig5vfixrK6sPvS0v3PjSWPVanQHfG/TcZJrN6LOdFzku2N1R8Pim5Q03K43wGsscmlOR4xBPsmopz0h2iBxUISbCwUtPf9Wj5KOUqhnws2V1li0G+B8L2jh56UHnRxv6OlAJw7W6DRJjoKhu0MXwYsVsI6AD6EzQzeakTLsZQgNvgi2hziNp+R4yLi5Q5LahYzhbnjt+CI4fcLjie/HyChuqhV8s6INGjaYj3FruAmgFXEDmg+Ys7TBybOiXr5+3MwGxyPGU0pZNZSvH49MK4pzmctJqLpnru1g7Ki1nKE8Oz2wZowrxWi0+2U1FeduxFB8D5jxhF9HtCS9QUehY/Hd2OiZJwHf2ds/i3qWcjcwMGrkO2XyMK009wW59hVGnGaQPXCW9J/C6zW8tzOipNg3HMQbWfm8pmQlyS6flWZWjpc3cEQRwbahleVl7FFlwOrsplaGV6kV82pshb2KrahMayvk1YB2Vi29Wlq182pr1cqrtVUbr/ZWLbx6WEXnj3HStjNzsXdls8lcu0gkNE1LImurKBkZpovpoxWokNPIWglOpiIhCrJ2sCKM2/kVwMUrgAuZy0xF2CuBjXCK/Dw6WVV6dbOq8upoVeHV1arYS1l9ZkbRlMfk5BdS2aLIS1nBakKDAAFzzRov28rzJkI2Mp6WezlWnjcR8oFrFXuNtpVvWzYfVQcWesnxrVepqotAhpaQXnl5Er6kreqLQAZaT5ReWYW06ENkpZu9Blw2iwvmtRZf5pNWw3qeZ4P4QDnPXS12cq/MQnra1arU2MZIofayZv0b+bS2Ql4VtLdq4dXDqt6rj1Wtl7LaFxn261jk9KnGS1l9hvrpGOPU07pyL2zlefGzABalar0Mq+g+eApi67jOS60qwyZig6QIaUN5lUwXZRJUW5vVWVGlWOkVf+PHBRpLWVWvjaArgVfJ7F+UXOhaar2/ELybJbwy3yHi8CKioZXHq2h5cDzw5qay+i57Vmg9dxVbsNdyHMnvZdyjrdjj85q3lGnjdW4TuzG119564c204gRfeeHo11nUubjercdjpeZGAfSQ7uIVsjqG9yrjEOM61lHthXq82i03h6345/e8cpaRf1b/sMrj1Wx13rVSOxpg5RDyKq/fDeTLDtpKvVFyZ4W8tIT0KkqFLuCArGRiurfSXigmSK+ChRoPIkVjK9AKWSkvHELBq0EYpQgtI9sLrcggEcEda8Fk/dHy8GgBj9Ytj1YOj1YOf1RLpGqjrCzVEt9royU2Coy0X6rFD2X8nwZBZnops6Ys1RrogLjaNBaDT6sQpVq0rhVVdR/KtbryR7VE4fnntETMiEwVRInc5zUkP/wfRUQnyEw+XO83Z14SVj7f6/y7Vg8PDw8PD/8ZPz//ADmGrvmLjsn7AAAAAElFTkSuQmCC;" parent="1" vertex="1">
                    <mxGeometry x="1070" y="302.33" width="80" height="80" as="geometry"/>
                </mxCell>
                <mxCell id="77" style="edgeStyle=orthogonalEdgeStyle;shape=connector;rounded=0;html=1;entryX=0;entryY=0.5;entryDx=0;entryDy=0;dashed=1;labelBackgroundColor=default;strokeColor=default;strokeWidth=3;fontFamily=Helvetica;fontSize=11;fontColor=default;endArrow=classic;" parent="1" source="51" target="70" edge="1">
                    <mxGeometry relative="1" as="geometry">
                        <Array as="points">
                            <mxPoint x="110" y="520"/>
                            <mxPoint x="110" y="879"/>
                        </Array>
                    </mxGeometry>
                </mxCell>
                <mxCell id="78" style="edgeStyle=orthogonalEdgeStyle;shape=connector;rounded=0;html=1;entryX=0.18;entryY=1.098;entryDx=0;entryDy=0;entryPerimeter=0;dashed=1;labelBackgroundColor=default;strokeColor=default;strokeWidth=3;fontFamily=Helvetica;fontSize=11;fontColor=default;endArrow=classic;" parent="1" source="36" target="25" edge="1">
                    <mxGeometry relative="1" as="geometry">
                        <Array as="points">
                            <mxPoint x="1590" y="524"/>
                            <mxPoint x="1590" y="1020"/>
                            <mxPoint x="367" y="1020"/>
                        </Array>
                    </mxGeometry>
                </mxCell>
            </root>
        </mxGraphModel>
    </diagram>
</mxfile>